<?xml version="1.0" standalone="no"?><!DOCTYPE svg PUBLIC "-//W3C//DTD SVG 1.1//EN" "http://www.w3.org/Graphics/SVG/1.1/DTD/svg11.dtd"><svg t="1538124721434" class="icon" style="" viewBox="0 0 1024 1024" version="1.1" xmlns="http://www.w3.org/2000/svg" p-id="4906" xmlns:xlink="http://www.w3.org/1999/xlink" width="200" height="200"><defs><style type="text/css"></style></defs><path d="M343.128115 740.397248c0 18.497699 12.330468 30.826169 30.826169 30.826169s30.826169-12.330468 30.826169-30.826169c0-110.972211 61.652338-184.951023 154.134839-184.951023 92.47651 0 154.126851 73.978811 154.126851 184.951023 0 18.497699 12.330468 30.826169 30.824172 30.826169 18.497699 0 30.826169-12.330468 30.826169-30.826169 0-101.719368-46.234261-184.951023-117.133451-221.940429 33.907787-27.746548 55.485107-70.903185 55.485107-117.141439 0-86.309279-67.817572-154.126851-154.126851-154.126851-86.31527 0-154.13484 67.817572-154.134839 154.126851 0 46.236258 21.579317 89.394892 55.491099 117.141439-70.905182 40.071024-117.145434 120.217066-117.145434 221.940429z m123.302679-339.083865c0-52.405486 40.077015-92.47651 92.482501-92.47651 52.397497 0 92.47651 40.071024 92.47651 92.47651 0 52.405486-40.077015 92.480504-92.47651 92.480504-52.405486 0-92.484499-40.075018-92.482501-92.480504zM34.872416 216.358365h184.955017v61.650341H34.872416v-61.650341z m0 554.863055h184.955017v61.658329H34.872416v-61.658329zM96.522757 308.836873h61.652338v431.558378h-61.652338V308.836873z" p-id="4907" fill="#8a8a8a"></path><path d="M833.25921 0.577179H253.733223c-86.311276 0-157.210466 70.901187-157.210466 157.210467V185.536191h61.650341V160.871261c0-52.403489 43.158634-95.558128 95.558128-95.558128h576.45036c52.403489 0 95.558128 43.154639 95.558128 95.558128v705.912281c0 52.403489-43.152642 95.568114-95.558128 95.568114H253.733223c-52.399494 0-95.558128-43.162628-95.558128-95.568114h-61.652338c0 86.31527 70.89919 157.216458 157.210466 157.216458h576.448363c86.307282 0 157.210466-70.901187 157.210466-157.216458V160.869264C990.471673 71.478367 919.572483 0.577179 833.25921 0.577179z" p-id="4908" fill="#8a8a8a"></path></svg>